# xmcd
#
# Track frame offsets: 
#        150
#        10680
#        23910
#        35449
#        45189
#        60957
#        73539
#        84356
#        97094
#        109325
#        122314
#        134006
#        145666
#        157013
#        167485
#        178582
#        189528
#        219921
#        232596
#        243028
#
# Disc length: 3412 seconds
#
# Revision: 0
# Processed by: cddbd v1.5.2PL0 Copyright (c) Steve Scherf et al.
# Submitted via: ExactAudioCopy v0.95b3
#
DISCID=f30d5214
DTITLE=The Beatles  - Rubber Soul - Purple Chick 06  Disc 2 - mono  FL
DTITLE=AC
DYEAR=1900
DGENRE=
TTITLE0=We Can Work It Out (mono)
TTITLE1=Day Tripper (mono)
TTITLE2=Drive My Car (mono)
TTITLE3=Norwegian Wood (This Bird Has Flown) (mono)
TTITLE4=You Won't See Me (mono)
TTITLE5=Nowhere Man (mono)
TTITLE6=Think For Yourself (mono)
TTITLE7=The Word (mono)
TTITLE8=Michelle (mono)
TTITLE9=What Goes On (mono)
TTITLE10=Girl (mono)
TTITLE11=I'm Looking Through You (mono)
TTITLE12=In My Life (mono)
TTITLE13=Wait (mono)
TTITLE14=If I Needed Someone (mono)
TTITLE15=Run For Your Life (mono)
TTITLE16=12-Bar Origina (mono)
TTITLE17=Michelle (US mono)
TTITLE18=We Can Work It Out (TV mono)
TTITLE19=Day Tripper (TV mono)
EXTD=
EXTT0=
EXTT1=
EXTT2=
EXTT3=
EXTT4=
EXTT5=
EXTT6=
EXTT7=
EXTT8=
EXTT9=
EXTT10=
EXTT11=
EXTT12=
EXTT13=
EXTT14=
EXTT15=
EXTT16=
EXTT17=
EXTT18=
EXTT19=
PLAYORDER=
